<svg version="1" xmlns="http://www.w3.org/2000/svg" width="933.333" height="933.333" viewBox="0 0 700.000000 700.000000"><path d="M1 350v350h697.7l.6-219.8c.4-120.8.7-278.3.7-350V0H1v350zm401-171.2c14.4 4.4 24.1 10.2 35.4 21.1 16.8 16.2 26.6 39.6 26.6 63.9 0 7.9.3 9.3 1.8 9.8 22.1 7.2 37.6 20.3 47.2 39.7 7.2 14.7 8.5 20.3 8.5 37.7 0 12.4-.3 15.6-2.3 22-8.3 26.4-27.7 46.1-52.8 53.6-5.2 1.6-11.7 1.8-55.1 2.1l-49.3.4v-12l48.3-.3c46.5-.4 48.4-.4 54.7-2.6 19.7-6.6 34.7-21.9 42.1-42.9 3.3-9.1 3.7-26.5 1-37.2-6.1-24.2-22.8-42-45.6-48.6-3.2-1-6.9-2.8-8.3-4.2-2.3-2.3-2.4-3-2-10.1 1.2-18.5-4-37.9-14.4-52.9-7.7-11.3-22.8-22.6-36.2-27-7.1-2.3-9.8-2.7-21.1-2.7-11.7-.1-13.9.2-21.9 2.8-10.3 3.4-20.9 10-28.5 17.7-8.2 8.3-13.5 16.8-18.2 29.4-3.2 8.6-7.5 9.7-15.5 4-10-7.2-20.7-8.2-32.4-2.9-11.8 5.3-17.9 14.9-19.1 30.1-.4 5.7-1.3 10.2-2.2 11.7-1 1.5-4.3 3.4-8.9 5.1-11 4.1-17.9 8.8-25.6 17-8.6 9.2-14.4 20.4-16.8 32.5-2.2 11.1-1.5 26.8 1.6 36 5.5 16.1 18.5 31.6 32 38.2 12.1 5.9 18.5 6.8 46.2 6.8 28.3 0 24.1-1.1 49.3 13.8l17 10.1.8-5.7c.4-3.1.6-10.1.5-15.5l-.3-9.8-6.5-2.2c-9.5-3.2-15.6-7.1-23.5-15.1-9.9-10-15.8-22-18-36.4l-.7-4.2h12l1.6 7c4.3 19.1 17.3 33 35.6 37.9 12.5 3.4 12 1.9 12 36.2 0 15.9-.2 28.9-.5 28.9-.8 0-20.4-11.2-38.9-22.3l-17-10.2-27.5-.6c-30.4-.6-34-1.2-46.6-7.4-19.7-9.6-36.7-32.1-41.1-54.5-2-10.1-1.4-29 1.1-38.5 6.6-23.9 25-44.7 46.8-52.7l5.7-2.1V268c0-11.6 5.2-23.1 14.2-31.7 9.7-9.1 19.5-12.7 33.2-12.1 7.7.4 10 .9 15.3 3.6l6.1 3.1 3-6.4c11.1-23.7 32.9-41.4 57.7-46.9 9.7-2.2 30.6-1.5 39.5 1.2zm-30.6 68c12.6 5.9 21.3 16.7 24.1 29.9 1.7 8.1 2.1 66.2.5 77.2-2.7 19.3-17.1 34-36 37-19.6 3.1-37.5-6.5-46.4-24.9l-3.1-6.5-.3-38c-.4-41.8 0-46.4 5-55.7 5.3-9.9 16.9-19.1 27.5-21.8 2.1-.5 7.9-.8 12.9-.6 7.8.3 10.2.8 15.8 3.4z"/><path d="M341.1 257.2c-9.1 3.5-16.5 12.4-18.6 22.5l-.7 3.3H349v5.9c0 5.8-.1 5.9-3.1 6.5-1.7.3-7.8.6-13.5.6H322v47.9l13.8.3 13.7.3v12l-13.2.5-13.2.5 1.9 4.2c2.3 5.1 8.6 11.5 14.2 14.4 5.9 3.1 17.7 3.8 24.6 1.5 7-2.4 13.9-8.7 17.3-16.1l2.9-6v-37.6c0-44.9-.1-45.4-8.9-54-3.8-3.7-7.3-6.1-10.6-7.2-6.7-2.3-16.7-2.1-23.4.5zM364 310v6h-32v-12h32v6zm0 20v6h-32v-12h32v6z"/></svg>